<svg xmlns="http://www.w3.org/2000/svg" xmlns:xlink="http://www.w3.org/1999/xlink" viewBox="0 0 292.68 139.32"><defs><style>.cls-1,.cls-5{fill:none;}.cls-2{clip-path:url(#clip-path);}.cls-3{fill:#3c412c;}.cls-4{fill:#c09473;}.cls-5{stroke:#3c412c;stroke-linecap:round;stroke-linejoin:round;stroke-width:2px;}</style><clipPath id="clip-path" transform="translate(-0.01)"><rect class="cls-1" width="292.68" height="139.3"/></clipPath></defs><title>Asset 1</title><g id="Layer_2" data-name="Layer 2"><g id="Layer_1-2" data-name="Layer 1"><g class="cls-2"><path class="cls-3" d="M285.71,125.36h7l-9-13.68,8.46-8.82h-7l-9.76,10.26V93h-6.17v32.36h6.17v-5.58l4.1-4.36Zm-22.72-23a6.9,6.9,0,0,0-7,4.86l-.4-4.41h-5.36v22.5h6.16V113.7a6,6,0,0,1,1.6-4.48,5.67,5.67,0,0,1,6.63-.93l.77-5.4a5.07,5.07,0,0,0-2.42-.48M233.42,107a4.7,4.7,0,0,1,4,1.78,8.68,8.68,0,0,1,1.37,5.33,8.66,8.66,0,0,1-1.37,5.33,5.34,5.34,0,0,1-8,0,8.6,8.6,0,0,1-1.37-5.33,8.66,8.66,0,0,1,1.37-5.33,4.7,4.7,0,0,1,4-1.78m0-4.59q-5.44,0-8.48,3.11c-2,2.07-3,4.93-3,8.6s1,6.52,3,8.59,4.85,3.11,8.48,3.11,6.46-1,8.48-3.11,3-4.93,3-8.59-1-6.53-3-8.6-4.85-3.11-8.48-3.11m-35,6.75,1.39-7h.09l1.39,7,4.14,16.2h7L221,95.66h-6.39l-5.76,24.79-6-24.79h-5.94l-5.94,24.79-5.76-24.79h-6.7l8.64,29.7h7.15Z" transform="translate(-0.01)"/></g><g class="cls-2"><path class="cls-3" d="M277.9,67.09a4.62,4.62,0,0,1-3.87-1.8,8.29,8.29,0,0,1-1.39-5.17A8.32,8.32,0,0,1,274,54.94a5,5,0,0,1,7.7,0,7.88,7.88,0,0,1,1.39,5v.45a7.93,7.93,0,0,1-1.39,5,4.65,4.65,0,0,1-3.83,1.75M283.12,39V52.56a7.52,7.52,0,0,0-2.79-3,8,8,0,0,0-4.23-1.1A8.68,8.68,0,0,0,269,51.53q-2.56,3.11-2.57,8.64T269,68.74a8.68,8.68,0,0,0,7.07,3.08,8.11,8.11,0,0,0,4.48-1.26,8,8,0,0,0,2.95-3.38l.27,4.18h5.49V39h-6.17ZM250.68,53a4.7,4.7,0,0,1,4,1.78A8.68,8.68,0,0,1,256,60.11a8.66,8.66,0,0,1-1.37,5.33,5.34,5.34,0,0,1-8,0,8.6,8.6,0,0,1-1.37-5.33,8.66,8.66,0,0,1,1.37-5.33,4.7,4.7,0,0,1,4-1.78m0-4.59q-5.44,0-8.48,3.11c-2,2.07-3,4.93-3,8.6s1,6.52,3,8.6,4.85,3.1,8.48,3.1,6.46-1,8.48-3.1,3-4.93,3-8.6-1-6.53-3-8.6-4.85-3.11-8.48-3.11M223.5,53a4.7,4.7,0,0,1,4,1.78,8.62,8.62,0,0,1,1.37,5.33,8.66,8.66,0,0,1-1.37,5.33,5.34,5.34,0,0,1-8,0,8.66,8.66,0,0,1-1.37-5.33,8.66,8.66,0,0,1,1.37-5.33,4.7,4.7,0,0,1,4-1.78m0-4.59q-5.44,0-8.48,3.11c-2,2.07-3,4.93-3,8.6s1,6.52,3,8.6,4.85,3.1,8.48,3.1,6.46-1,8.48-3.1,3-4.93,3-8.6-1-6.53-3-8.6-4.85-3.11-8.48-3.11m-30.56,7.25v4.59h8.68v.68a5.19,5.19,0,0,1-2,4.39,8.21,8.21,0,0,1-5.13,1.51,7.52,7.52,0,0,1-6.21-2.61q-2.12-2.61-2.11-7.7,0-4.91,2.16-7.56a7.34,7.34,0,0,1,6-2.65,7.59,7.59,0,0,1,4.3,1.19A6.07,6.07,0,0,1,201.13,51l5.71-2.48A12,12,0,0,0,202.05,43a15.54,15.54,0,0,0-7.85-1.76,15.26,15.26,0,0,0-7.63,1.85,12.56,12.56,0,0,0-5,5.31,17.79,17.79,0,0,0-1.78,8.19,18.12,18.12,0,0,0,1.73,8.21A12.19,12.19,0,0,0,186.32,70a14.1,14.1,0,0,0,7.2,1.8q6.07,0,8.77-4l.14,3.56H207V55.65h-14Z" transform="translate(-0.01)"/></g><g class="cls-2"><path class="cls-4" d="M92.09,31c-4.08-4.08-10.46-4.3-14.26-.51A10.44,10.44,0,0,0,78,45.06l0,0,9.62,9.62L98.3,65.48,52,19.15h0A9.72,9.72,0,0,0,38.22,32.9h0l.07.08h0L71.76,66.47,38.29,33l-8.65-8.65h0l0-.05A9.73,9.73,0,0,0,15.85,38.06l.05,0h0L58,80.23h0L21.51,43.7A9.73,9.73,0,0,0,7.75,57.46h0L30.83,80.54,44.27,94,17.62,67.33A9.73,9.73,0,0,0,3.86,81.08h0l41.3,40.46c19.32,19.33,50.29,19.68,69.17.81,16.43-16.43,18.28-42,5.76-61.1C113.84,52,92.09,31,92.09,31" transform="translate(-0.01)"/></g><g class="cls-2"><path class="cls-5" d="M92.09,31c-4.08-4.08-10.46-4.3-14.26-.51A10.44,10.44,0,0,0,78,45.06l0,0,9.62,9.62L98.3,65.48,52,19.15h0A9.72,9.72,0,0,0,38.22,32.9h0l.07.08h0L71.76,66.47,38.29,33l-8.65-8.65h0l0-.05A9.73,9.73,0,0,0,15.85,38.06l.05,0h0L58,80.23h0L21.51,43.7A9.73,9.73,0,0,0,7.75,57.46h0L30.83,80.54,44.27,94,17.62,67.33A9.73,9.73,0,0,0,3.86,81.08h0l41.3,40.46c19.32,19.33,50.29,19.68,69.17.81,16.43-16.43,18.28-42,5.76-61.1C113.84,52,92.09,31,92.09,31Z" transform="translate(-0.01)"/></g><g class="cls-2"><path class="cls-4" d="M105.87,33c-4.08-4.08-10.46-4.3-14.26-.51a10.45,10.45,0,0,0,.21,14.56l0,0,9.62,9.62L112.08,67.5,65.75,21.17h0A9.72,9.72,0,0,0,52,34.92h0l.08.08a0,0,0,0,0,0,0h0L85.55,68.49,52.08,35l-8.65-8.65h0l0-.05A9.73,9.73,0,0,0,29.63,40.08l.05,0h0L71.79,82.25h0L35.29,45.73A9.73,9.73,0,0,0,21.53,59.49h0L44.61,82.57,58.05,96,31.4,69.36A9.73,9.73,0,0,0,17.64,83.12h0L59,123.59c19.32,19.33,50.29,19.68,69.17.81,16.43-16.43,18.28-42,5.76-61.11-6.26-9.32-28-30.25-28-30.25" transform="translate(-0.01)"/></g><g class="cls-2"><path class="cls-5" d="M110.85,9.69,99.9,22.74M71.71,2.79l5.82,16M92.2,1l-3,16.77M105.87,33c-4.08-4.08-10.46-4.3-14.26-.51a10.45,10.45,0,0,0,.21,14.56l0,0,9.62,9.62L112.08,67.5,65.75,21.17h0A9.72,9.72,0,0,0,52,34.92h0l.08.08a0,0,0,0,0,0,0h0L85.55,68.49,52.08,35l-8.65-8.65h0l0-.05A9.73,9.73,0,0,0,29.63,40.08l.05,0h0L71.79,82.25h0L35.29,45.73A9.73,9.73,0,0,0,21.53,59.49h0L44.61,82.57,58.05,96,31.4,69.36A9.73,9.73,0,0,0,17.64,83.12h0L59,123.59c19.32,19.33,50.29,19.68,69.17.81,16.43-16.43,18.28-42,5.76-61.11C127.62,54,105.87,33,105.87,33Z" transform="translate(-0.01)"/></g></g></g></svg>