<svg xmlns="http://www.w3.org/2000/svg" xmlns:xlink="http://www.w3.org/1999/xlink" version="1.1" id="Layer_1" x="0px" y="0px" viewBox="0 0 780 440" xml:space="preserve"> <rect x="-0.08" fill="#FEEECD" width="780" height="440"></rect> <path fill="none" d="M504.45,201.18l-57.71,82.18L504.45,201.18c-30.3-23.73-67.94-37.8-108.74-37.8 c-39.2,0-75.46,13.02-105.12,35.08l51.4,73.2l-51.4-73.2c-45.87,34.12-75.9,89.92-76.27,153.1h362.79 C576.75,290.05,548.28,235.5,504.45,201.18z"></path> <path fill="#CE3665" stroke="#162020" stroke-width="1.5" stroke-miterlimit="10" d="M290.59,198.46l-43.04-61.3 c-64.19,47.87-106.27,125.96-107.05,214.39h73.82C214.69,288.38,244.72,232.58,290.59,198.46z"></path> <path fill="#016B40" stroke="#162020" stroke-width="1.5" stroke-miterlimit="10" d="M577.11,351.56h73.82 c-0.76-86.77-41.25-163.63-103.41-211.71l-43.07,61.33C548.28,235.5,576.75,290.05,577.11,351.56z"></path> <path fill="#FFBC00" stroke="#162020" stroke-width="1.5" stroke-miterlimit="10" d="M395.71,163.38c40.8,0,78.44,14.07,108.74,37.8 l43.07-61.33c-42.42-32.82-94.94-52.23-151.81-52.23c-55.27,0-106.39,18.39-148.16,49.55l43.04,61.3 C320.25,176.4,356.51,163.38,395.71,163.38z"></path> <circle fill="#FFFFFF" stroke="#162020" stroke-width="1.5" stroke-miterlimit="10" cx="660.11" cy="267.72" r="53.51"></circle> <g> <g> <path fill="#016B40" stroke="#162020" stroke-width="1.5" stroke-miterlimit="10" d="M682,284.34c1.74,1.09,1.63,2.66,1.45,4.17 c-0.15,1.27-1.53,2.17-3.15,2.18c-4.04,0.03-8.08,0.03-12.12,0.03c-4.68,0.01-9.35,0.01-14.03,0.01c-1.78,0-2.17-0.34-2.17-2.07 c0.02-7.03-0.11-14.07,0.18-21.09c0.15-3.55,1.7-6.85,3.85-9.71c1.93-2.56,4.07-4.97,6.22-7.35c0.88-0.97,1.42-1.89,1.33-3.26 c-0.08-1.29,0.09-2.6,0.22-3.89c0.13-1.25,1.15-2.4,2.19-2.56c1.86-0.29,3.54,0.46,4.24,1.82c1.85,3.57,1.77,7.3,0.76,11.03 c-0.51,1.88-1.41,3.66-2.2,5.46c-0.53,1.21-0.45,1.45,0.88,1.45c4.08,0.01,8.15,0,12.23-0.03c3.09-0.02,4.41,2.42,3.96,5.2 c-0.28,1.77-0.97,2.37-2.66,3.38c1.31,1.13,2.74,2.06,2.62,4.19c-0.11,2.11-1,3.24-3.41,3.73c1.8,1.01,2.32,2.24,2.29,3.96 C684.69,282.86,683.71,283.68,682,284.34z"></path> <path fill="#016B40" stroke="#162020" stroke-width="1.5" stroke-miterlimit="10" d="M634.27,276.65c0-3.96,0-7.93,0-11.89 c0-1.56,0.45-2.01,2-2.02c3.29-0.01,6.58-0.01,9.87,0c1.45,0,1.96,0.5,1.96,1.96c0.01,8,0.01,16.01,0,24.01 c0,1.46-0.5,1.96-1.95,1.96c-3.33,0.01-6.66,0.01-9.99,0c-1.37,0-1.89-0.52-1.9-1.9C634.26,284.73,634.27,280.69,634.27,276.65z"></path> </g> </g> <circle fill="#FFFFFF" stroke="#162020" stroke-width="1.5" stroke-miterlimit="10" cx="119.89" cy="267.72" r="53.51"></circle> <g> <g> <path fill="#CE3665" stroke="#162020" stroke-width="1.5" stroke-miterlimit="10" d="M98,251.09c-1.74-1.09-1.63-2.66-1.45-4.17 c0.15-1.27,1.53-2.17,3.15-2.18c4.04-0.03,8.08-0.03,12.12-0.03c4.68-0.01,9.35-0.01,14.03-0.01c1.78,0,2.17,0.34,2.17,2.07 c-0.02,7.03,0.11,14.07-0.18,21.09c-0.15,3.55-1.7,6.85-3.85,9.71c-1.93,2.56-4.07,4.97-6.22,7.35c-0.88,0.97-1.42,1.89-1.33,3.26 c0.08,1.29-0.09,2.6-0.22,3.89c-0.13,1.25-1.15,2.4-2.19,2.56c-1.86,0.29-3.54-0.46-4.24-1.82c-1.85-3.57-1.77-7.3-0.76-11.03 c0.51-1.88,1.41-3.66,2.2-5.46c0.53-1.21,0.45-1.45-0.88-1.45c-4.08-0.01-8.15,0-12.23,0.03c-3.09,0.02-4.41-2.42-3.96-5.2 c0.28-1.77,0.97-2.37,2.66-3.38c-1.31-1.13-2.74-2.06-2.62-4.19c0.11-2.11,1-3.24,3.41-3.73c-1.8-1.01-2.32-2.24-2.29-3.96 C95.31,252.57,96.29,251.75,98,251.09z"></path> <path fill="#CE3665" stroke="#162020" stroke-width="1.5" stroke-miterlimit="10" d="M145.73,258.78c0,3.96,0,7.93,0,11.89 c0,1.56-0.45,2.01-2,2.02c-3.29,0.01-6.58,0.01-9.87,0c-1.45,0-1.96-0.5-1.96-1.96c-0.01-8-0.01-16.01,0-24.01 c0-1.46,0.5-1.96,1.95-1.96c3.33-0.01,6.66-0.01,9.99,0c1.37,0,1.89,0.52,1.9,1.9C145.74,250.7,145.73,254.74,145.73,258.78z"></path> </g> </g> <g> <path fill="#FEEECD" stroke="#162020" stroke-width="1.5" stroke-miterlimit="10" d="M248.19,352.38 c0-85.03,66.04-153.96,147.51-153.96s147.51,68.93,147.51,153.96"></path> <line fill="none" stroke="#162020" stroke-width="1.5" stroke-miterlimit="10" x1="247.09" y1="352.38" x2="544.34" y2="352.38"></line> </g> <circle fill="#FFE16D" stroke="#162020" stroke-width="1.5" stroke-miterlimit="10" cx="395.7" cy="281.3" r="45.14"></circle> <g> <path fill="#FFBC00" stroke="#162020" stroke-width="1.5" stroke-miterlimit="10" d="M399.68,258.22l217.21-87.87 c4.61-1.87,6.53,1.99,2.24,4.51L415.29,294.23L399.68,258.22z"></path> <circle fill="#FFBC00" stroke="#162020" stroke-width="1.5" stroke-miterlimit="10" cx="395.71" cy="281.3" r="24.99"></circle> </g> </svg>