<svg id="Layer_1" data-name="Layer 1" xmlns="http://www.w3.org/2000/svg" viewBox="0 0 300 300"><defs><style>.cls-1{fill:#1d1d21;}.cls-2{fill:#fff;}.cls-3{fill:#00ab4e;}.cls-4{fill:none;stroke:#00ab4e;stroke-linejoin:round;stroke-width:3.4px;}</style></defs><path class="cls-1" d="M299,154.45l-11.11,23,1.5,25.47a10.22,10.22,0,0,1-3.42,8.25l-19.07,16.94-8.39,24.1a10.21,10.21,0,0,1-6.3,6.3l-24.1,8.39L211.15,286a10.21,10.21,0,0,1-8.26,3.42l-25.46-1.49-23,11.1a10.22,10.22,0,0,1-8.9,0l-23-11.11-25.47,1.5A10.22,10.22,0,0,1,88.85,286L71.91,266.88l-24.1-8.39a10.21,10.21,0,0,1-6.3-6.3l-8.39-24.1L14.05,211.15a10.21,10.21,0,0,1-3.42-8.26l1.49-25.46L1,154.45a10.22,10.22,0,0,1,0-8.9l11.11-23L10.63,97.1a10.22,10.22,0,0,1,3.42-8.25L33.12,71.91l8.39-24.1a10.21,10.21,0,0,1,6.3-6.3l24.1-8.39L88.85,14.05a10.21,10.21,0,0,1,8.26-3.42l25.46,1.49,23-11.1a10.22,10.22,0,0,1,8.9,0l23,11.11,25.47-1.5a10.22,10.22,0,0,1,8.25,3.42l16.94,19.07,24.1,8.39a10.21,10.21,0,0,1,6.3,6.3l8.39,24.1L286,88.85a10.21,10.21,0,0,1,3.42,8.26l-1.49,25.46,11.1,23A10.22,10.22,0,0,1,299,154.45Z"/><path class="cls-2" d="M88.54,79.07a7.37,7.37,0,0,1-2.42,5.12A8.24,8.24,0,0,1,80.5,86a8,8,0,0,1-4.32-1.16,7.58,7.58,0,0,1-2.88-3.31,11.88,11.88,0,0,1-1.06-5V74.67a11.93,11.93,0,0,1,1-5.11,7.77,7.77,0,0,1,3-3.41A8.24,8.24,0,0,1,80.67,65a7.9,7.9,0,0,1,5.46,1.84A7.67,7.67,0,0,1,88.54,72H85a5.11,5.11,0,0,0-1.29-3.2,4.26,4.26,0,0,0-3-1,4.2,4.2,0,0,0-3.58,1.7,8.55,8.55,0,0,0-1.27,5v1.82A9.06,9.06,0,0,0,77,81.41a4,4,0,0,0,3.49,1.74,4.58,4.58,0,0,0,3.15-.94A4.91,4.91,0,0,0,85,79.07Z"/><path class="cls-2" d="M108.82,76a12.64,12.64,0,0,1-1,5.29,7.91,7.91,0,0,1-3,3.5,8.74,8.74,0,0,1-8.91,0,8,8,0,0,1-3-3.47,12.23,12.23,0,0,1-1.08-5.2V75a12.66,12.66,0,0,1,1.06-5.3,7.94,7.94,0,0,1,3-3.51A8.18,8.18,0,0,1,100.31,65a8.31,8.31,0,0,1,4.45,1.2,8,8,0,0,1,3,3.47,12.53,12.53,0,0,1,1.07,5.26ZM105.26,75A8.94,8.94,0,0,0,104,69.73a4.55,4.55,0,0,0-7.27,0,8.72,8.72,0,0,0-1.33,5.12V76a8.88,8.88,0,0,0,1.31,5.23,4.25,4.25,0,0,0,3.66,1.85A4.17,4.17,0,0,0,104,81.29,9.07,9.07,0,0,0,105.26,76Z"/><path class="cls-2" d="M129.37,85.75H125.8l-9.14-14.56V85.75h-3.57V65.23h3.57l9.17,14.61V65.23h3.54Z"/><path class="cls-2" d="M134.3,85.75V65.23h6.06a9.56,9.56,0,0,1,4.82,1.21,8.29,8.29,0,0,1,3.27,3.44A11,11,0,0,1,149.6,75v1a11,11,0,0,1-1.16,5.13,8.24,8.24,0,0,1-3.31,3.41,9.94,9.94,0,0,1-4.93,1.2Zm3.56-17.64V82.9h2.33a5.34,5.34,0,0,0,4.3-1.75,7.66,7.66,0,0,0,1.53-5V75a7.81,7.81,0,0,0-1.45-5.1,5.13,5.13,0,0,0-4.21-1.76Z"/><path class="cls-2" d="M157.63,85.75h-3.54V65.23h3.54Z"/><path class="cls-2" d="M177.15,68.11h-6.4V85.75h-3.53V68.11h-6.34V65.23h16.27Z"/><path class="cls-2" d="M184.33,85.75h-3.55V65.23h3.55Z"/><path class="cls-2" d="M205.8,76a12.64,12.64,0,0,1-1,5.29,7.91,7.91,0,0,1-3,3.5,8.73,8.73,0,0,1-8.9,0,8,8,0,0,1-3-3.47,12.23,12.23,0,0,1-1.08-5.2V75a12.51,12.51,0,0,1,1.07-5.3,7.86,7.86,0,0,1,3-3.51A8.18,8.18,0,0,1,197.29,65a8.28,8.28,0,0,1,4.45,1.2,7.9,7.9,0,0,1,3,3.47,12.38,12.38,0,0,1,1.07,5.26ZM202.24,75A8.94,8.94,0,0,0,201,69.73a4.55,4.55,0,0,0-7.27,0,8.79,8.79,0,0,0-1.33,5.12V76a9,9,0,0,0,1.31,5.23,4.25,4.25,0,0,0,3.66,1.85A4.17,4.17,0,0,0,201,81.29,9.07,9.07,0,0,0,202.24,76Z"/><path class="cls-2" d="M226.35,85.75h-3.57l-9.14-14.56V85.75h-3.57V65.23h3.57l9.17,14.61V65.23h3.54Z"/><path class="cls-2" d="M66.38,141.28,72.76,118h8.62L70.6,150H62.16L51.47,118H60Z"/><path class="cls-2" d="M92.78,150.43a12.26,12.26,0,0,1-8.86-3.26,11.31,11.31,0,0,1-3.38-8.5v-.62a14.63,14.63,0,0,1,1.35-6.44,9.91,9.91,0,0,1,4-4.32A11.89,11.89,0,0,1,92,125.76a10.32,10.32,0,0,1,7.92,3.11q2.9,3.12,2.9,8.68v2.88H88.08a5.29,5.29,0,0,0,1.74,3.14,5.17,5.17,0,0,0,3.47,1.15,6.64,6.64,0,0,0,5.5-2.47l3.38,4a9.38,9.38,0,0,1-3.92,3.05A13.2,13.2,0,0,1,92.78,150.43Zm-.83-19c-2.17,0-3.46,1.43-3.87,4.31h7.47v-.57a3.66,3.66,0,0,0-.9-2.76A3.55,3.55,0,0,0,92,131.48Z"/><path class="cls-2" d="M119.06,132.91l-2.44-.18q-3.5,0-4.49,2.2V150h-7.41V126.2h7l.24,3.06c1.25-2.33,3-3.5,5.21-3.5a7.5,7.5,0,0,1,2.07.26Z"/><path class="cls-2" d="M130.51,139.61l4-13.41h7.94L132.71,154l-.42,1a7.37,7.37,0,0,1-7.3,4.62,11.31,11.31,0,0,1-3.06-.44v-5.28h1a5.1,5.1,0,0,0,2.39-.45,2.76,2.76,0,0,0,1.22-1.61l.59-1.59-8.27-24h7.92Z"/><path class="cls-2" d="M152.42,137.92a16.13,16.13,0,0,1,1.19-6.38,9.55,9.55,0,0,1,3.41-4.27,8.94,8.94,0,0,1,5.17-1.51,7.15,7.15,0,0,1,5.8,2.51l.26-2.07H175v22.89a10,10,0,0,1-1.46,5.47,9.38,9.38,0,0,1-4.23,3.56,15.55,15.55,0,0,1-6.42,1.24,13.39,13.39,0,0,1-5.07-1,9.27,9.27,0,0,1-3.75-2.57l3.1-4.36a6.79,6.79,0,0,0,5.45,2.44q4.93,0,4.93-5v-.75a7,7,0,0,1-5.39,2.35,8.58,8.58,0,0,1-7-3.33q-2.69-3.33-2.69-8.91Zm7.44.46A8.39,8.39,0,0,0,161,143a3.45,3.45,0,0,0,3.07,1.71,3.94,3.94,0,0,0,3.5-1.61v-10a3.84,3.84,0,0,0-3.45-1.62,3.48,3.48,0,0,0-3.1,1.77A9.62,9.62,0,0,0,159.86,138.38Z"/><path class="cls-2" d="M177.13,137.88a14.12,14.12,0,0,1,1.39-6.35,9.85,9.85,0,0,1,4-4.27,12,12,0,0,1,6.09-1.5,10.92,10.92,0,0,1,8.42,3.31q3.08,3.31,3.08,9v.27q0,5.57-3.09,8.83a12.41,12.41,0,0,1-16.52.22,11.89,11.89,0,0,1-3.32-8.26Zm7.41.46a8.85,8.85,0,0,0,1,4.84,3.46,3.46,0,0,0,3,1.54q4,0,4.05-6.1v-.74q0-6.4-4.09-6.4-3.72,0-4,5.52Z"/><path class="cls-2" d="M201.29,137.88a14.12,14.12,0,0,1,1.39-6.35,9.85,9.85,0,0,1,4-4.27,12,12,0,0,1,6.09-1.5,10.92,10.92,0,0,1,8.42,3.31q3.08,3.31,3.08,9v.27q0,5.57-3.09,8.83a12.41,12.41,0,0,1-16.52.22,11.93,11.93,0,0,1-3.32-8.26Zm7.42.46a8.86,8.86,0,0,0,1,4.84,3.46,3.46,0,0,0,3,1.54q4,0,4.05-6.1v-.74q0-6.4-4.09-6.4-3.72,0-4,5.52Z"/><path class="cls-2" d="M225.46,137.92c0-3.77.81-6.73,2.44-8.9a8,8,0,0,1,6.81-3.26,6.84,6.84,0,0,1,5.37,2.51V116.22h7.43V150h-6.66l-.38-2.55a7,7,0,0,1-5.8,3,8,8,0,0,1-6.73-3.25C226.28,145,225.46,141.92,225.46,137.92Zm7.41.46c0,4.22,1.23,6.34,3.69,6.34a3.65,3.65,0,0,0,3.52-2.07v-9.06a3.55,3.55,0,0,0-3.48-2.11c-2.28,0-3.52,1.84-3.71,5.54Z"/><path class="cls-3" d="M181.9,207.8a7.13,7.13,0,0,0-6.37-7.1H150.06l6.08-24.18a5.5,5.5,0,0,0,.12-1.08c0-3.54-3.09-6.37-7-6.61h-11.9L118.1,254.12h47.68a7.1,7.1,0,0,0,3.9-13,7.09,7.09,0,0,0,2.55-13.17,7.1,7.1,0,0,0,3.26-13.06,7.09,7.09,0,0,0,6.41-7.06"/><path class="cls-4" d="M239.88,202.8a5.15,5.15,0,0,0-4.59-5.12H217l4.38-17.4a4.05,4.05,0,0,0,.09-.78,5.06,5.06,0,0,0-5-4.76h-8.58l-13.87,61.41h34.33a5.12,5.12,0,0,0,2.81-9.38,5.11,5.11,0,0,0,1.83-9.49,5.1,5.1,0,0,0,2.35-9.39,5.12,5.12,0,0,0,4.62-5.09"/><path class="cls-3" d="M107.81,202.8a5.14,5.14,0,0,0-4.59-5.12H84.88l4.38-17.4a4.05,4.05,0,0,0,.09-.78c0-2.55-2.22-4.58-5-4.76H75.74L61.87,236.15H96.2A5.12,5.12,0,0,0,99,226.77a5.11,5.11,0,0,0,1.83-9.49,5.1,5.1,0,0,0,2.35-9.39,5.12,5.12,0,0,0,4.62-5.09"/></svg>