<?xml version="1.0" encoding="UTF-8" standalone="no"?>
<!-- Created with Inkscape (http://www.inkscape.org/) -->

<svg
   version="1.1"
   id="svg870"
   width="670"
   height="533.12506"
   viewBox="0 0 670 533.12506"
   sodipodi:docname="reg.svg"
   inkscape:version="1.1.2 (0a00cf5339, 2022-02-04)"
   xmlns:inkscape="http://www.inkscape.org/namespaces/inkscape"
   xmlns:sodipodi="http://sodipodi.sourceforge.net/DTD/sodipodi-0.dtd"
   xmlns="http://www.w3.org/2000/svg"
   xmlns:svg="http://www.w3.org/2000/svg">
  <defs
     id="defs874" />
  <sodipodi:namedview
     id="namedview872"
     pagecolor="#ffffff"
     bordercolor="#666666"
     borderopacity="1.0"
     inkscape:pageshadow="2"
     inkscape:pageopacity="0.0"
     inkscape:pagecheckerboard="0"
     showgrid="false"
     fit-margin-top="0"
     fit-margin-left="0"
     fit-margin-right="0"
     fit-margin-bottom="0"
     inkscape:zoom="0.55"
     inkscape:cx="793.63636"
     inkscape:cy="251.81818"
     inkscape:window-width="1296"
     inkscape:window-height="704"
     inkscape:window-x="0"
     inkscape:window-y="0"
     inkscape:window-maximized="1"
     inkscape:current-layer="g876" />
  <g
     inkscape:groupmode="layer"
     inkscape:label="Image"
     id="g876"
     transform="translate(-7.0077722,-7.296842)">
    <g
       id="g996"
       transform="translate(-40.44034,112.04545)">
      <path
         style="fill:#333333;fill-opacity:1;stroke-width:0.557186"
         d="M 51.448112,82.431787 V -105.23157 H 386.4481 721.44811 V 82.431787 270.09514 H 386.4481 51.448112 Z M 434.70764,213.39287 c 1.55715,-0.58965 1.94337,-1.68189 0.59459,-1.68189 -0.46063,0 -0.83748,0.25022 -0.83748,0.55604 0,0.30583 -0.36208,0.55605 -0.80456,0.55605 -0.44248,0 -0.95987,0.25022 -1.14959,0.55604 -0.43659,0.70351 0.36208,0.70851 2.19704,0.0138 z m -7.27517,-7.10327 c -1.44315,-2.67594 -3.10713,-5.67399 -3.69764,-6.66233 -0.5904,-0.98834 -0.89144,-2.09043 -0.6689,-2.44909 0.23859,-0.3844 0.16408,-0.50401 -0.18144,-0.29134 -0.32228,0.1984 -0.73514,-0.0261 -0.91738,-0.49901 -0.21615,-0.56103 -0.10643,-0.72143 0.3156,-0.46163 0.44218,0.27215 0.53255,0.0614 0.28568,-0.66618 -0.22463,-0.66179 0.10902,-0.45683 0.88216,0.542 2.72859,3.525 3.36328,4.05836 2.05859,1.72996 -3.45575,-6.1677 -5.72091,-9.89035 -10.40394,-17.09822 -3.46223,-5.32896 -4.49631,-6.47105 -3.93962,-4.35091 0.18553,0.70675 0.0429,0.97946 -0.41984,0.80261 -0.93453,-0.35713 -1.49491,1.92683 -0.79319,3.23266 0.30553,0.56853 0.37944,1.31738 0.16428,1.66414 -0.21764,0.35063 -0.14453,0.47858 0.16469,0.28827 0.30572,-0.1882 1.35636,1.35673 2.33458,3.43318 0.97822,2.07645 2.78006,4.88162 4.00386,6.2337 1.2239,1.35208 3.0387,3.77306 4.03288,5.37995 3.59549,5.81111 8.98115,14.03759 9.19002,14.03759 0.1176,0 -0.96715,-2.18941 -2.41039,-4.86535 z m -6.92606,-12.92792 c 0,-0.30582 0.26603,-0.55604 0.59131,-0.55604 0.32517,0 0.43599,0.25022 0.24617,0.55604 -0.18972,0.30582 -0.45584,0.55604 -0.5913,0.55604 -0.13536,0 -0.24618,-0.25022 -0.24618,-0.55604 z m 10.67755,14.30875 c -0.5513,-0.54507 -0.61554,-0.4812 -0.31251,0.31128 0.20967,0.54837 0.52188,0.85697 0.69385,0.68577 0.17186,-0.1712 3e-4,-0.61986 -0.38134,-0.99705 z m -0.62761,-1.41356 c 0,-0.24738 -0.38093,-0.93547 -0.84655,-1.52911 -0.78501,-1.00087 -0.79878,-0.96816 -0.18952,0.44976 0.65743,1.52994 1.03607,1.92448 1.03607,1.07935 z m -8.44959,-22.34786 c 0.53235,0 1.20664,-0.21999 1.4984,-0.48887 0.29176,-0.26888 1.53541,-0.80501 2.7637,-1.19141 4.2243,-1.32884 13.67296,-6.15038 17.17958,-8.76653 1.93161,-1.44106 4.25821,-3.17631 5.1704,-3.8561 0.91209,-0.67979 4.04525,-2.9623 6.96256,-5.07225 7.3407,-5.30926 14.37508,-13.18268 23.17728,-25.94207 4.69371,-6.80381 11.33678,-22.32606 13.08825,-30.58217 0.38921,-1.83493 1.06181,-4.58733 1.49451,-6.11643 0.4328,-1.52912 1.07957,-7.199953 1.43716,-12.601873 1.20565,-18.2091 -1.59985,-35.06202 -8.50056,-51.06467 -4.88912,-11.33781 -10.23717,-20.19911 -16.7791,-27.80198 C 465.99038,6.2309073 464.8787,5.1018973 458.78753,-0.55448273 455.57088,-3.5416027 445.49192,-11.260883 444.80835,-11.260883 c -0.18633,0 -1.01962,-0.46163 -1.85161,-1.02584 -3.29236,-2.23254 -8.40421,-4.96741 -12.12119,-6.48481 -2.14956,-0.87754 -4.03398,-1.75092 -4.1875,-1.94082 -0.42522,-0.52598 -15.56806,-4.89758 -18.42492,-5.31914 -1.382,-0.2039 -2.74335,-0.5078 -3.02543,-0.67533 -0.28199,-0.16753 -1.78947,-0.40066 -3.35002,-0.51808 -1.56034,-0.11742 -3.62491,-0.42384 -4.58777,-0.68093 -4.52145,-1.20733 -26.06073,-0.34367 -33.14928,1.32918 -1.99379,0.47052 -5.38384,1.27348 -7.53341,1.78437 -2.14957,0.51088 -4.4108,1.23771 -5.02499,1.61517 -0.61418,0.37745 -1.99603,0.86484 -3.07082,1.08309 -1.07479,0.21824 -2.2054,0.58924 -2.51253,0.82443 -0.30707,0.2352 -1.38089,0.60283 -2.3863,0.81696 -1.00534,0.21413 -2.51284,0.96128 -3.34994,1.66034 -0.83717,0.69906 -2.33864,1.44839 -3.33666,1.6652 -0.99802,0.2168 -1.81456,0.62452 -1.81456,0.90604 0,0.28152 -0.39366,0.51186 -0.87475,0.51186 -0.48116,0 -1.69829,0.62554 -2.70479,1.3901 -1.0065,0.76455 -2.08194,1.3901 -2.38983,1.3901 -0.3079,0 -1.07954,0.43788 -1.71488,0.97307 -2.35314,1.9823703 -3.28307,2.6792403 -5.72686,4.2916003 -2.96258,1.95468 -3.19777,2.14532 -7.5264,6.09988 -1.84244,1.68328997 -3.66402,3.06771 -4.04784,3.07649 -0.3839,0.009 -0.69797,0.29549 -0.69797,0.63709 0,0.34161 -0.94213,1.55036 -2.09374,2.6861 -2.30902,2.27732 -3.01855,3.09411 -7.95565,9.1586397 -5.88599,7.23002 -10.78551,16.03405 -15.1877,27.29098 -7.82737,20.01544 -9.34117,41.83308 -4.3237,62.315793 0.9043,3.69151 1.64415,7.14204 1.64415,7.66786 0,1.61426 3.93291,12.65577 5.87025,16.4805 2.75104,5.43114 11.57058,19.36091 14.25815,22.51961 1.30105,1.5291 4.23486,4.73567 6.51965,7.12569 l 4.15409,4.34549 -5.07188,5.22123 c -5.57706,5.74124 -6.71088,8.0032 -2.64023,5.26724 1.33746,-0.89892 2.75008,-2.01644 3.13925,-2.48337 0.38909,-0.46692 1.02281,-0.84896 1.40825,-0.84896 0.38536,0 1.0135,-0.37532 1.39578,-0.83406 0.3823,-0.45873 1.16685,-0.83406 1.7434,-0.83406 0.57655,0 1.04832,-0.19995 1.04832,-0.44433 0,-0.24439 0.94207,-0.78245 2.09369,-1.19569 2.46851,-0.88583 6.10407,-4.42585 7.67704,-7.4753 1.02288,-1.98303 8.02593,-8.35317 16.73016,-15.21829 2.7166,-2.1426 3.70659,-3.7705 3.89668,-6.40785 0.0174,-0.24053 0.29114,-0.61586 0.60841,-0.83406 0.56331,-0.38742 1.14334,-2.92026 2.54188,-11.10051 0.56332,-3.29491 0.87687,-4.03129 1.71647,-4.03129 1.51895,0 1.54528,-3.69168 0.0933,-13.06212 -0.95954,-6.19169 -2.58075,-9.952243 -6.8339,-15.851933 -2.8548,-3.95989 -9.55534,-15.42024 -10.56582,-18.07129 -0.34972,-0.91747 -1.0209,-4.26495 -1.49151,-7.43885 -0.47061,-3.17389 -0.98453,-5.97836 -1.14204,-6.23213 -0.25085,-0.40427 -0.90167,-9.58439 -0.87758,-12.37937 0.006,-0.56571 0.43785,-1.34096 0.96218,-1.72278 0.52612,-0.38315 0.77222,-0.98602 0.54911,-1.34547 -0.48686,-0.78456 0.66488,-4.52179 1.39354,-4.52179 0.28331,0 0.51508,0.25021 0.51508,0.55603 0,0.30583 0.26704,0.55604 0.59338,0.55604 0.3264,0 0.52669,-0.43788 0.44505,-0.97306 -0.0816,-0.5352 0.0681,-1.72373 0.33263,-2.64119 0.26454,-0.91747 0.50396,-1.93597 0.53203,-2.26333 0.0282,-0.32736 1.24893,-1.9232 2.71301,-3.5463 1.46402,-1.62311 2.50495,-2.54379 2.31313,-2.04598 -0.25221,0.65455 -0.0321,0.90511 0.7947,0.90511 0.62891,0 1.30831,-0.26565 1.50982,-0.59033 0.20152,-0.32469 0.98517,-0.82466 1.74152,-1.11104 1.40736,-0.53288 1.32598,-1.63487 -0.12076,-1.63487 -0.44248,0 -0.80453,-0.25021 -0.80453,-0.55603 0,-0.30583 0.50248,-0.55604 1.11667,-0.55604 0.61412,0 1.11667,-0.25022 1.11667,-0.55604 0,-0.30583 -0.38666,-0.55604 -0.85926,-0.55604 -1.21779,0 0.92079,-2.25012 2.33438,-2.45609 0.57051,-0.0831 1.12336,-0.62796 1.22851,-1.21071 0.34915,-1.93567 4.7329,-5.84066 8.46301,-7.53872 1.99604,-0.90868 4.06545,-1.88688 4.5987,-2.17379 0.53319,-0.28693 1.67253,-0.52168 2.53187,-0.52168 0.85926,0 3.04654,-0.51952 4.86059,-1.1544897 2.93741,-1.02817 4.02324,-1.1114 9.92407,-0.76065 6.47307,0.38476 6.63303,0.36623 6.94022,-0.80369 0.28972,-1.10339 0.60533,-1.18051 4.01496,-0.98113 3.88974,0.22746 6.5251,-0.35148 5.93419,-1.30362 -0.50791,-0.81854 1.35367,-1.37682 2.10288,-0.63065 0.34792,0.34643 1.31038,0.62987 2.13878,0.62987 0.8285,0 2.59991,0.62253 3.93633,1.3834 1.33641,0.76087 3.18363,1.38661 4.1049,1.39054 0.92126,0.004 3.20508,0.728 5.07504,1.6090597 1.87006,0.88107 4.00575,1.78964 4.74588,2.01904 0.74022,0.22942 2.62794,1.25988 4.19517,2.28991 1.56723,1.03005 3.03511,1.8728 3.26193,1.8728 0.97783,0 3.42672,2.46284 4.32315,4.34772 1.20864,2.54139 1.2626,3.49797 0.17376,3.08188 -0.57644,-0.2203 -0.83748,0.0349 -0.83748,0.81869 0,1.5011 0.89913,2.01391 1.37492,0.78417 0.3565,-0.92169 0.40248,-0.92154 0.92366,0.003 0.33006,0.58543 0.35001,1.32644 0.0499,1.86013 -0.55988,0.99639 -0.24188,3.41774 0.50961,3.8803 1.12615,0.6931 0.53615,4.39588 -1.34349,8.4317 -0.8281,1.77809 0.41425,8.21357 2.73617,14.17391 2.10726,5.4093 2.31563,7.88551 0.98969,11.76096 -0.8315,2.43046 -0.8302,2.81801 0.017,5.02802 1.07358,2.79967 4.66937,8.87289 7.59765,12.8321 2.69168,3.63948 2.9212,4.42024 1.96741,6.69349 -0.58332,1.39019 -1.52473,2.2485 -3.48397,3.17616 l -2.6848,1.27118 -0.0529,4.39081 c -0.0469,3.905763 -0.1976,4.507843 -1.36624,5.450173 -1.10939,0.89474 -1.20974,1.22497 -0.64527,2.12509 1.05822,1.6876 0.78621,3.3466 -0.78681,4.79844 -1.20454,1.11179 -1.39057,1.6492 -1.08056,3.12198 0.89264,4.24098 0.96017,6.6715 0.22393,8.05221 -1.39875,2.62277 -9.66351,5.55247 -19.18409,6.80043 -8.67622,1.13728 -8.59513,1.06907 -9.25207,7.77786 -0.22463,2.29366 -0.58521,4.95831 -0.80137,5.92144 -0.32128,1.43223 -0.20009,1.81208 0.66542,2.08566 0.58202,0.18398 3.40956,2.64879 6.28328,5.47736 4.90208,4.82506 5.1336,5.15373 3.74611,5.3188 -1.86667,0.22207 -1.91056,0.9857 -0.0828,1.44249 0.76776,0.19189 1.39586,0.71946 1.39586,1.17236 0,0.50121 0.53066,0.82346 1.35597,0.82346 1.36684,0 3.11072,1.2846 3.11072,2.2915 0,1.00268 -1.56434,3.57054 -3.86272,6.34033 -1.25342,1.51063 -2.27892,3.07203 -2.27892,3.46978 0,0.39775 1.09911,2.40408 2.44241,4.45851 1.3434,2.05443 3.16488,5.36175 4.04794,7.34959 1.39487,3.14036 1.62858,3.41376 1.78209,2.08515 0.117,-1.01242 0.50372,-1.52912 1.1446,-1.52912 z m -7.46678,-18.34294 c 0.1956,-0.31519 -0.0279,-0.40841 -0.52537,-0.21853 -0.96735,0.36965 -1.1443,0.7682 -0.34114,0.7682 0.28897,0 0.67888,-0.24735 0.86651,-0.54967 z M 428.32311,27.629077 c 0,-0.28777 -0.25126,-0.52323 -0.55838,-0.52323 -0.30703,0 -0.55829,0.3901 -0.55829,0.86688 0,0.47678 0.25126,0.71223 0.55829,0.52322 0.30712,-0.18901 0.55838,-0.5791 0.55838,-0.86687 z"
         id="path998" />
      <rect
         style="fill:#333333;fill-opacity:0.987619;stroke-width:1.00076"
         id="rect1823"
         width="670"
         height="149.79832"
         x="51.448112"
         y="274.09515" />
      <text
         xml:space="preserve"
         style="font-size:96px;line-height:1.25;font-family:sans-serif;fill:#ffffff"
         x="251.08665"
         y="384.52124"
         id="text3051"><tspan
           sodipodi:role="line"
           id="tspan3049"
           x="251.08665"
           y="384.52124">USER</tspan></text>
      <text
         xml:space="preserve"
         style="font-size:85.3333px;line-height:1.25;font-family:sans-serif"
         x="834.50287"
         y="705.52557"
         id="text21841"><tspan
           sodipodi:role="line"
           id="tspan21839"
           x="834.50287"
           y="705.52557"
           style="fill:#ff5555">🗸</tspan></text>
    </g>
    <text
       xml:space="preserve"
       style="font-size:85.3333px;line-height:1.25;font-family:sans-serif;white-space:pre;inline-size:70.3764"
       x="549.73724"
       y="714.55255"
       id="text25661"><tspan
         x="549.73724"
         y="714.55255"
         id="tspan35979"><tspan
           style="fill:#800080"
           id="tspan35977">🗸</tspan></tspan></text>
    <g
       id="g35740"
       transform="translate(-343.70029,-377.92613)">
      <circle
         style="fill:#00ff00;fill-opacity:0.987619;stroke-width:0.882787"
         id="path35611"
         cx="901.88922"
         cy="643.71448"
         r="45" />
      <text
         xml:space="preserve"
         style="font-size:85.3333px;line-height:1.25;font-family:sans-serif"
         x="869.14062"
         y="674.88635"
         id="text28835"><tspan
           sodipodi:role="line"
           id="tspan28833"
           x="869.14062"
           y="674.88635"
           style="fill:#ffffff">✓</tspan></text>
    </g>
  </g>
</svg>
